<?xml version="1.0" encoding="UTF-8"?>
<svg version="1.1" xmlns="http://www.w3.org/2000/svg" width="620" height="620">
<path d="M0 0 C12.58068574 11.57789289 25.24175262 23.51722 35.5625 37.1875 C36.35269531 38.18394531 37.14289062 39.18039063 37.95703125 40.20703125 C48.40643641 53.41722822 57.24216539 67.56249097 65.5625 82.1875 C65.90490723 82.77901855 66.24731445 83.37053711 66.60009766 83.97998047 C106.24119401 152.75560711 112.81132152 239.28928953 92.58984375 315.0859375 C86.30952044 337.59377599 77.23543165 358.48069495 66.5625 379.1875 C66.13582031 380.01733398 65.70914063 380.84716797 65.26953125 381.70214844 C56.58728444 398.36287633 45.46272607 413.6933018 33.5625 428.1875 C33.13775391 428.71520996 32.71300781 429.24291992 32.27539062 429.78662109 C25.51369734 438.16713126 18.08701011 445.86900676 10.5 453.5 C9.59016357 454.41910156 8.68032715 455.33820312 7.74291992 456.28515625 C1.65665969 462.34351041 -4.69545325 467.87265327 -11.4375 473.1875 C-12.15848877 473.76250244 -12.87947754 474.33750488 -13.62231445 474.92993164 C-56.78438716 509.13987075 -108.75624529 531.87108621 -163.4375 539.1875 C-164.69344971 539.36265137 -165.94939941 539.53780273 -167.2434082 539.71826172 C-180.18909891 541.41013847 -193.0833306 541.58742568 -206.125 541.5625 C-207.80884293 541.56118576 -207.80884293 541.56118576 -209.52670288 541.55984497 C-227.80136548 541.51292317 -245.45149641 540.6687426 -263.4375 537.1875 C-264.66549316 536.95144043 -265.89348633 536.71538086 -267.15869141 536.47216797 C-293.23802459 531.27239348 -318.58507919 522.98547158 -342.4375 511.1875 C-343.28715332 510.76887695 -344.13680664 510.35025391 -345.01220703 509.91894531 C-368.85133743 498.05872517 -391.77500452 483.62334903 -411.20703125 465.27734375 C-413.16812241 463.43989406 -415.16953672 461.68171365 -417.203125 459.92578125 C-421.41878741 456.248996 -425.42277879 452.3945404 -429.375 448.4375 C-430.07375244 447.73794189 -430.77250488 447.03838379 -431.49243164 446.31762695 C-436.87379518 440.87248985 -441.72417426 435.22240532 -446.4375 429.1875 C-447.8738455 427.47819586 -449.31138544 425.76989485 -450.75 424.0625 C-494.4560255 370.29955168 -517.2880519 301.01729317 -516.875 232.0625 C-516.87162628 230.95742096 -516.86825256 229.85234192 -516.86477661 228.71377563 C-516.55995183 159.42255258 -493.40775655 90.29984517 -448.73095703 36.74121094 C-447.42800079 35.17608948 -446.14955647 33.59297104 -444.87109375 32.0078125 C-438.47982345 24.21016153 -431.47869544 17.01987672 -424.375 9.875 C-423.46516357 8.95589844 -422.55532715 8.03679687 -421.61791992 7.08984375 C-415.53165969 1.03148959 -409.17954675 -4.49765327 -402.4375 -9.8125 C-401.71651123 -10.38750244 -400.99552246 -10.96250488 -400.25268555 -11.55493164 C-390.0596707 -19.63383971 -379.54439293 -27.04436212 -368.4375 -33.8125 C-367.82181152 -34.18793945 -367.20612305 -34.56337891 -366.57177734 -34.95019531 C-272.53945466 -91.5167126 -153.22042025 -92.90806877 0 0 Z " fill="#000000" transform="translate(516.4375,78.8125)"/>
<path d="M0 0 C2.62608022 0.00314472 5.25101229 -0.02033869 7.87695312 -0.0456543 C24.61580749 -0.11072549 40.79592328 1.85052241 56.77539062 7.00317383 C57.8752832 7.35130127 58.97517578 7.69942871 60.10839844 8.05810547 C69.08088829 10.98939127 77.39187445 14.53751628 85.52539062 19.31567383 C86.11674805 19.65679199 86.70810547 19.99791016 87.31738281 20.34936523 C114.43718354 36.19754492 132.63012909 60.14893993 140.76367188 90.45239258 C141.72878774 95.34726228 142.07369802 100.34705512 142.52539062 105.31567383 C119.09539062 105.31567383 95.66539062 105.31567383 71.52539062 105.31567383 C69.87539063 102.01567383 68.22539062 98.71567383 66.52539062 95.31567383 C57.4816906 81.22432727 42.26712341 75.12054763 26.52539062 71.31567383 C1.52423392 66.53369789 -24.53391007 70.15805708 -45.67382812 84.48364258 C-56.09841239 92.51896333 -63.44393102 103.48062147 -66.47460938 116.31567383 C-66.77235021 119.57043467 -66.80842748 122.79875206 -66.78710938 126.06567383 C-66.78219482 126.9523877 -66.77728027 127.83910156 -66.7722168 128.75268555 C-66.54064597 141.71352679 -62.57881422 153.78835179 -53.47460938 163.31567383 C-36.80532974 177.10859679 -18.47738958 179.70007535 2.52539062 181.31567383 C2.52539062 163.16567383 2.52539062 145.01567383 2.52539062 126.31567383 C25.77988023 126.31567383 25.77988023 126.31567383 33.40039062 127.56567383 C34.27203857 127.70062256 35.14368652 127.83557129 36.04174805 127.97460938 C43.39627009 129.17331022 50.46760299 130.90868267 57.52539062 133.31567383 C58.14687988 133.52562988 58.76836914 133.73558594 59.40869141 133.9519043 C93.11032507 145.4873628 119.53804335 166.03527102 135.48291016 198.25024414 C140.01965761 207.67719144 143.31335266 217.06693514 145.52539062 227.31567383 C145.75097656 228.33918945 145.9765625 229.36270508 146.20898438 230.41723633 C152.02190018 262.72903039 145.87656034 297.93612115 127.52539062 325.31567383 C105.84266152 355.95668327 73.1347499 375.02296949 36.33789062 381.75317383 C24.56308896 383.64713642 12.73570252 383.67941811 0.83789062 383.69067383 C-0.06448334 383.69275848 -0.9668573 383.69484314 -1.89657593 383.69699097 C-16.21636226 383.69324374 -29.83899056 382.76187577 -43.66210938 378.69067383 C-44.54648682 378.4327002 -45.43086426 378.17472656 -46.34204102 377.90893555 C-66.3879113 371.85822766 -84.35818446 362.69866213 -100.47460938 349.31567383 C-101.42207031 348.53450195 -102.36953125 347.75333008 -103.34570312 346.94848633 C-123.92807353 329.13962683 -139.46185411 302.43047119 -142.47460938 275.31567383 C-118.05460937 275.31567383 -93.63460937 275.31567383 -68.47460938 275.31567383 C-66.49460937 279.27567383 -64.51460938 283.23567383 -62.47460938 287.31567383 C-53.61046727 299.18729272 -41.35970519 305.78293594 -27.47460938 310.31567383 C-26.78625 310.54899414 -26.09789062 310.78231445 -25.38867188 311.02270508 C-3.57608907 317.88231822 24.12308195 314.64279341 44.02319336 304.37792969 C57.77303897 296.97994275 67.04066019 286.92897817 72.33789062 272.03051758 C76.15718936 256.9920288 74.55143734 240.64413084 66.76367188 227.29614258 C56.20627957 211.64207812 40.41672698 205.26022043 22.52539062 201.31567383 C15.92539062 200.65567383 9.32539063 199.99567383 2.52539062 199.31567383 C2.52539062 216.80567383 2.52539062 234.29567383 2.52539062 252.31567383 C-7.65701775 252.31567383 -16.81796244 252.23703382 -26.72460938 250.69067383 C-27.88210693 250.51246094 -29.03960449 250.33424805 -30.23217773 250.15063477 C-56.2259337 245.90719584 -82.99813647 235.95639596 -102.26367188 217.42114258 C-104.53389389 215.20073982 -104.53389389 215.20073982 -107.41601562 212.94848633 C-121.35330487 201.4301928 -130.18626168 183.20494235 -135.47460938 166.31567383 C-135.76980469 165.48036133 -136.065 164.64504883 -136.36914062 163.78442383 C-142.69286603 145.09360981 -142.07084021 122.49557163 -138.47460938 103.31567383 C-138.35633789 102.65825195 -138.23806641 102.00083008 -138.11621094 101.32348633 C-132.52999593 71.18919671 -114.24553041 43.58001611 -89.18115234 25.97485352 C-74.53068563 16.12840477 -58.60106387 9.01494719 -41.53710938 4.62817383 C-40.75086182 4.42538818 -39.96461426 4.22260254 -39.15454102 4.01367188 C-26.09372125 0.8246961 -13.38297931 -0.03333399 0 0 Z " fill="#FEFEFE" transform="translate(307.474609375,118.684326171875)"/>
</svg>
